<svg xmlns="http://www.w3.org/2000/svg" width="256" height="256" viewBox="0 0 100 100"><rect width="100" height="100" rx="20" fill="#1f2833"></rect><path d="M58.30 49.85L58.30 49.85Q58.30 46.55 57.38 44.14Q56.47 41.73 54.85 40.18Q53.23 38.62 51.01 37.86Q48.78 37.10 46.16 37.10L46.16 37.10Q44.75 37.10 43.63 37.19Q42.50 37.28 41.46 37.40L41.46 37.40L41.46 62.47Q42.50 62.72 43.81 62.81Q45.12 62.90 46.40 62.90L46.40 62.90Q52.07 62.90 55.19 59.61Q58.30 56.31 58.30 49.85ZM66.41 49.79L66.41 49.79Q66.41 54.73 64.98 58.42Q63.54 62.11 60.92 64.52Q58.30 66.93 54.61 68.15Q50.92 69.37 46.40 69.37L46.40 69.37Q45.36 69.37 44.14 69.34Q42.92 69.31 41.61 69.15Q40.30 69.00 38.99 68.76Q37.68 68.51 36.52 68.09L36.52 68.09Q33.59 66.99 33.59 64.43L33.59 64.43L33.59 34.54Q33.59 33.44 34.20 32.83Q34.81 32.22 35.91 31.85L35.91 31.85Q38.17 31.06 40.82 30.85Q43.47 30.63 45.85 30.63L45.85 30.63Q50.43 30.63 54.24 31.82Q58.05 33.01 60.74 35.39Q63.42 37.77 64.91 41.37Q66.41 44.97 66.41 49.79Z" fill="#fff"></path></svg>